<?xml version="1.0" encoding="UTF-8" standalone="no"?>
<!-- Created with Inkscape (http://www.inkscape.org/) -->

<svg
   xmlns:dc="http://purl.org/dc/elements/1.1/"
   xmlns:cc="http://creativecommons.org/ns#"
   xmlns:rdf="http://www.w3.org/1999/02/22-rdf-syntax-ns#"
   xmlns:svg="http://www.w3.org/2000/svg"
   xmlns="http://www.w3.org/2000/svg"
   xmlns:xlink="http://www.w3.org/1999/xlink"
   xmlns:sodipodi="http://sodipodi.sourceforge.net/DTD/sodipodi-0.dtd"
   xmlns:inkscape="http://www.inkscape.org/namespaces/inkscape"
   width="16"
   height="16"
   id="svg2"
   version="1.1"
   inkscape:version="0.48.2 r9819"
   sodipodi:docname="green_led_on.svg"
   inkscape:export-filename="/Users/sideris/devel/clarity/src/resources/green_led_on.png"
   inkscape:export-xdpi="90"
   inkscape:export-ydpi="90">
  <defs
     id="defs4">
    <linearGradient
       id="linearGradient3144"
       inkscape:collect="always">
      <stop
         id="stop3146"
         offset="0"
         style="stop-color:#80b500;stop-opacity:0" />
      <stop
         style="stop-color:#526329;stop-opacity:1"
         offset="0.75"
         id="stop3150" />
      <stop
         id="stop3148"
         offset="1"
         style="stop-color:#050504;stop-opacity:1" />
    </linearGradient>
    <linearGradient
       inkscape:collect="always"
       id="linearGradient3899">
      <stop
         style="stop-color:#ededd6;stop-opacity:1"
         offset="0"
         id="stop3901" />
      <stop
         style="stop-color:#eef1a3;stop-opacity:0"
         offset="1"
         id="stop3903" />
    </linearGradient>
    <linearGradient
       id="linearGradient3885"
       inkscape:collect="always">
      <stop
         id="stop3887"
         offset="0"
         style="stop-color:#80b500;stop-opacity:0" />
      <stop
         id="stop3889"
         offset="1"
         style="stop-color:#ffffff;stop-opacity:1" />
    </linearGradient>
    <linearGradient
       inkscape:collect="always"
       id="linearGradient3775">
      <stop
         style="stop-color:#80b500;stop-opacity:0"
         offset="0"
         id="stop3777" />
      <stop
         style="stop-color:#444937;stop-opacity:1"
         offset="1"
         id="stop3779" />
    </linearGradient>
    <radialGradient
       inkscape:collect="always"
       xlink:href="#linearGradient3775"
       id="radialGradient3783"
       cx="8.4999981"
       cy="11.06251"
       fx="8.4999981"
       fy="11.06251"
       r="7.5"
       gradientTransform="matrix(1.6035098,-5.4445131e-8,4.8611854e-8,1.2471743,-5.1298305,-3.0553391)"
       gradientUnits="userSpaceOnUse" />
    <linearGradient
       inkscape:collect="always"
       xlink:href="#linearGradient3885"
       id="linearGradient3883"
       x1="8.5"
       y1="14"
       x2="8.5"
       y2="1.75"
       gradientUnits="userSpaceOnUse" />
    <radialGradient
       inkscape:collect="always"
       xlink:href="#linearGradient3899"
       id="radialGradient3897"
       cx="8.5"
       cy="7"
       fx="8.5"
       fy="7"
       r="7.5"
       gradientTransform="matrix(1,0,0,0.93333333,0,0.46666667)"
       gradientUnits="userSpaceOnUse" />
    <radialGradient
       inkscape:collect="always"
       xlink:href="#linearGradient3144"
       id="radialGradient3142"
       gradientUnits="userSpaceOnUse"
       gradientTransform="matrix(1.0690065,0,0,0.99773943,-0.58655319,-1.0442686)"
       cx="8.4999981"
       cy="8.0625095"
       fx="8.4999981"
       fy="8.0625095"
       r="7.5" />
  </defs>
  <sodipodi:namedview
     id="base"
     pagecolor="#ffffff"
     bordercolor="#666666"
     borderopacity="1.0"
     inkscape:pageopacity="0.0"
     inkscape:pageshadow="2"
     inkscape:zoom="33.499649"
     inkscape:cx="8.6567233"
     inkscape:cy="6.7790335"
     inkscape:document-units="px"
     inkscape:current-layer="layer1"
     showgrid="true"
     objecttolerance="1"
     inkscape:window-width="1310"
     inkscape:window-height="724"
     inkscape:window-x="56"
     inkscape:window-y="0"
     inkscape:window-maximized="1">
    <inkscape:grid
       type="xygrid"
       id="grid2985"
       empspacing="5"
       visible="true"
       enabled="true"
       snapvisiblegridlinesonly="true" />
  </sodipodi:namedview>
  <metadata
     id="metadata7">
    <rdf:RDF>
      <cc:Work
         rdf:about="">
        <dc:format>image/svg+xml</dc:format>
        <dc:type
           rdf:resource="http://purl.org/dc/dcmitype/StillImage" />
        <dc:title></dc:title>
      </cc:Work>
    </rdf:RDF>
  </metadata>
  <g
     inkscape:label="Layer 1"
     inkscape:groupmode="layer"
     id="layer1"
     transform="translate(0,-1036.3622)">
    <path
       sodipodi:type="arc"
       style="fill:#f6f20a;fill-rule:evenodd;stroke:#3f3f3f;stroke-width:1.00016200000000000;stroke-linecap:butt;stroke-linejoin:miter;stroke-opacity:1;stroke-miterlimit:4;stroke-dasharray:none;fill-opacity:1;opacity:0.99000000000000021"
       id="path2987"
       sodipodi:cx="8.5"
       sodipodi:cy="7"
       sodipodi:rx="7.5"
       sodipodi:ry="7"
       d="m 16,7 c 0,3.865993 -3.357864,7 -7.5,7 C 4.3578644,14 1,10.865993 1,7 1,3.1340068 4.3578644,0 8.5,0 12.642136,0 16,3.1340068 16,7 z"
       transform="matrix(0.99781116,0,0,1.0690834,-0.48139482,1036.8786)" />
    <path
       transform="matrix(0.99781116,0,0,1.0690834,-0.48139482,1036.8786)"
       d="m 16,7 c 0,3.865993 -3.357864,7 -7.5,7 C 4.3578644,14 1,10.865993 1,7 1,3.1340068 4.3578644,0 8.5,0 12.642136,0 16,3.1340068 16,7 z"
       sodipodi:ry="7"
       sodipodi:rx="7.5"
       sodipodi:cy="7"
       sodipodi:cx="8.5"
       id="path3757"
       style="fill:url(#radialGradient3783);fill-rule:evenodd;stroke:none;stroke-width:1.00016200000000000;stroke-linecap:butt;stroke-linejoin:miter;stroke-opacity:1;stroke-miterlimit:4;stroke-dasharray:none;fill-opacity:1"
       sodipodi:type="arc" />
    <path
       sodipodi:type="arc"
       style="fill:url(#radialGradient3142);fill-rule:evenodd;stroke:none;stroke-width:1.00016200000000000;stroke-linecap:butt;stroke-linejoin:miter;stroke-opacity:1;stroke-miterlimit:4;stroke-dasharray:none;fill-opacity:1;opacity:0.65420560999999999"
       id="path3140"
       sodipodi:cx="8.5"
       sodipodi:cy="7"
       sodipodi:rx="7.5"
       sodipodi:ry="7"
       d="m 16,7 c 0,3.865993 -3.357864,7 -7.5,7 C 4.3578644,14 1,10.865993 1,7 1,3.1340068 4.3578644,0 8.5,0 12.642136,0 16,3.1340068 16,7 z"
       transform="matrix(0.99781116,0,0,1.0690834,-0.48139482,1036.8786)" />
    <path
       sodipodi:type="arc"
       style="fill:url(#linearGradient3883);fill-opacity:1;fill-rule:evenodd;stroke:none"
       id="path3111"
       sodipodi:cx="8.5"
       sodipodi:cy="7"
       sodipodi:rx="7.5"
       sodipodi:ry="7"
       d="m 16,7 c 0,3.865993 -3.357864,7 -7.5,7 C 4.3578644,14 1,10.865993 1,7 1,3.1340068 4.3578644,0 8.5,0 12.642136,0 16,3.1340068 16,7 z"
       transform="matrix(0.66666666,0,0,0.5,2.3333335,1038.3622)" />
    <path
       transform="matrix(0.66666666,0,0,0.5,2.3333335,1038.3622)"
       d="m 16,7 c 0,3.865993 -3.357864,7 -7.5,7 C 4.3578644,14 1,10.865993 1,7 1,3.1340068 4.3578644,0 8.5,0 12.642136,0 16,3.1340068 16,7 z"
       sodipodi:ry="7"
       sodipodi:rx="7.5"
       sodipodi:cy="7"
       sodipodi:cx="8.5"
       id="path3891"
       style="fill:url(#linearGradient3883);fill-opacity:1;fill-rule:evenodd;stroke:none"
       sodipodi:type="arc" />
    <path
       sodipodi:type="arc"
       style="opacity:0.80373828;fill:url(#radialGradient3897);fill-opacity:1;fill-rule:evenodd;stroke:none"
       id="path3893"
       sodipodi:cx="8.5"
       sodipodi:cy="7"
       sodipodi:rx="7.5"
       sodipodi:ry="7"
       d="m 16,7 c 0,3.865993 -3.357864,7 -7.5,7 C 4.3578644,14 1,10.865993 1,7 1,3.1340068 4.3578644,0 8.5,0 12.642136,0 16,3.1340068 16,7 z"
       transform="matrix(0.53333332,0,0,0.34221583,3.4666668,1046.3622)" />
  </g>
</svg>
